<?xml version="1.0" encoding="iso-8859-1"?>
<!-- Uploaded to: SVG Repo, www.svgrepo.com, Generator: SVG Repo Mixer Tools -->
<svg fill="#000000" height="800px" width="800px" version="1.1" id="Layer_1" xmlns="http://www.w3.org/2000/svg" xmlns:xlink="http://www.w3.org/1999/xlink" 
	 viewBox="0 0 512 512" xml:space="preserve">
<g>
	<g>
		<path d="M422.607,334.386c-5.516-87.111-78.128-156.299-166.607-156.299S94.91,247.274,89.394,334.386
			c-50.101,4.875-89.393,47.227-89.393,98.588v23.374c0,6.146,4.983,11.13,11.13,11.13h100.174v33.391
			c0,6.146,4.983,11.13,11.13,11.13h267.13c6.146,0,11.13-4.984,11.13-11.13v-33.391H500.87c6.146,0,11.13-4.984,11.13-11.13
			v-23.374C512,381.613,472.71,339.261,422.607,334.386z M256.001,200.348c76.04,0,138.569,58.961,144.271,133.565H111.729
			C117.431,259.309,179.961,200.348,256.001,200.348z M489.739,445.217H389.565H256.001c-6.147,0-11.13,4.984-11.13,11.13
			c0,6.146,4.983,11.13,11.13,11.13h122.435v22.261H133.566v-22.261h55.652c6.147,0,11.13-4.984,11.13-11.13
			c0-6.146-4.983-11.13-11.13-11.13h-66.782H22.262v-12.243c0-42.348,34.452-76.8,76.8-76.8h1.113h311.651h1.113
			c42.348,0,76.8,34.452,76.8,76.8V445.217z"/>
	</g>
</g>
<g>
	<g>
		<path d="M122.436,378.435c-12.275,0-22.261,9.986-22.261,22.261c0,12.275,9.986,22.261,22.261,22.261s22.261-9.986,22.261-22.261
			C144.696,388.421,134.71,378.435,122.436,378.435z"/>
	</g>
</g>
<g>
	<g>
		<path d="M189.218,378.435c-12.275,0-22.261,9.986-22.261,22.261c0,12.275,9.986,22.261,22.261,22.261s22.261-9.986,22.261-22.261
			C211.479,388.421,201.493,378.435,189.218,378.435z"/>
	</g>
</g>
<g>
	<g>
		<path d="M389.565,378.435c-12.275,0-22.261,9.986-22.261,22.261c0,12.275,9.986,22.261,22.261,22.261
			c12.275,0,22.261-9.986,22.261-22.261C411.826,388.421,401.841,378.435,389.565,378.435z"/>
	</g>
</g>
<g>
	<g>
		<path d="M322.783,378.435c-12.275,0-22.261,9.986-22.261,22.261c0,12.275,9.986,22.261,22.261,22.261
			c12.275,0,22.261-9.986,22.261-22.261C345.044,388.421,335.059,378.435,322.783,378.435z"/>
	</g>
</g>
<g>
	<g>
		<path d="M256.001,378.435c-12.275,0-22.261,9.986-22.261,22.261c0,12.275,9.986,22.261,22.261,22.261s22.261-9.986,22.261-22.261
			C278.261,388.421,268.276,378.435,256.001,378.435z"/>
	</g>
</g>
<g>
	<g>
		<path d="M133.022,114.909c-1.309-4.029-4.793-6.967-8.986-7.576l-32.664-4.746L76.765,72.988
			c-1.875-3.799-5.744-6.205-9.982-6.205s-8.106,2.405-9.981,6.204l-14.608,29.599l-32.664,4.746
			c-4.193,0.61-7.676,3.547-8.986,7.576c-1.31,4.029-0.217,8.452,2.817,11.41l23.637,23.039l-5.58,32.532
			c-0.717,4.176,1,8.396,4.428,10.885c3.428,2.492,7.972,2.818,11.721,0.848l29.215-15.36L96,193.623
			c1.628,0.856,3.407,1.278,5.178,1.278c2.307,0,4.605-0.718,6.544-2.126c3.428-2.49,5.144-6.709,4.428-10.885l-5.58-32.532
			l23.635-23.039C133.239,123.361,134.331,118.938,133.022,114.909z M86.841,137.501c-2.623,2.558-3.821,6.241-3.201,9.853
			l2.757,16.07l-14.433-7.588c-1.622-0.853-3.4-1.278-5.179-1.278s-3.558,0.426-5.179,1.278l-14.433,7.588l2.757-16.07
			c0.62-3.611-0.578-7.295-3.201-9.853l-11.678-11.382l16.137-2.345c3.625-0.528,6.76-2.805,8.38-6.089l7.216-14.621l7.216,14.622
			c1.622,3.285,4.755,5.562,8.38,6.089l16.137,2.344L86.841,137.501z"/>
	</g>
</g>
<g>
	<g>
		<path d="M511.455,114.909c-1.31-4.029-4.793-6.967-8.984-7.576l-32.664-4.746l-14.608-29.599
			c-1.874-3.798-5.743-6.204-9.981-6.204s-8.105,2.405-9.982,6.204l-14.608,29.599l-32.664,4.746
			c-4.193,0.61-7.676,3.547-8.984,7.576c-1.309,4.029-0.217,8.452,2.816,11.41l23.637,23.039l-5.58,32.532
			c-0.717,4.176,1.001,8.396,4.429,10.885c3.428,2.49,7.973,2.817,11.721,0.848l29.215-15.36l29.215,15.36
			c1.628,0.856,3.407,1.278,5.178,1.278c2.307,0,4.605-0.718,6.544-2.126c3.427-2.49,5.144-6.709,4.429-10.886l-5.58-32.532
			l23.635-23.039C511.673,123.361,512.763,118.938,511.455,114.909z M465.273,137.501c-2.622,2.558-3.82,6.241-3.201,9.853
			l2.757,16.07l-14.433-7.588c-1.621-0.853-3.4-1.278-5.179-1.278c-1.779,0-3.558,0.426-5.179,1.278l-14.433,7.588l2.757-16.07
			c0.619-3.611-0.579-7.295-3.201-9.853l-11.677-11.382l16.137-2.345c3.625-0.528,6.758-2.805,8.38-6.089l7.216-14.622l7.216,14.623
			c1.622,3.285,4.755,5.562,8.38,6.089l16.137,2.344L465.273,137.501z"/>
	</g>
</g>
<g>
	<g>
		<path d="M336.805,58.71c-1.31-4.029-4.793-6.967-8.986-7.576l-42.73-6.207l-19.108-38.72c-1.874-3.799-5.744-6.205-9.982-6.205
			s-8.106,2.405-9.981,6.204l-19.109,38.72l-42.73,6.207c-4.193,0.61-7.676,3.547-8.986,7.576c-1.31,4.029-0.217,8.452,2.817,11.41
			l30.919,30.14l-7.299,42.556c-0.717,4.176,1,8.396,4.428,10.886c3.427,2.492,7.972,2.818,11.721,0.848l38.219-20.093
			l38.219,20.093c1.628,0.856,3.407,1.278,5.178,1.278c2.307,0,4.605-0.718,6.544-2.126c3.427-2.49,5.144-6.709,4.429-10.886
			l-7.299-42.556l30.919-30.139C337.023,67.163,338.114,62.739,336.805,58.71z M283.34,88.402c-2.622,2.558-3.82,6.241-3.201,9.853
			l4.476,26.095l-23.436-12.32c-1.622-0.853-3.4-1.278-5.179-1.278c-1.779,0-3.558,0.426-5.179,1.278l-23.436,12.32l4.476-26.095
			c0.62-3.611-0.578-7.295-3.201-9.853l-18.96-18.481l26.203-3.807c3.625-0.528,6.76-2.805,8.38-6.089l11.718-23.743l11.717,23.743
			c1.622,3.285,4.755,5.562,8.381,6.089l26.202,3.807L283.34,88.402z"/>
	</g>
</g>
<g>
	<g>
		<path d="M230.479,448.478c-0.512-0.512-1.08-0.979-1.692-1.38c-0.601-0.4-1.247-0.746-1.914-1.024
			c-0.679-0.278-1.38-0.501-2.093-0.633c-1.436-0.29-2.905-0.29-4.341,0c-0.712,0.132-1.414,0.355-2.093,0.633
			c-0.668,0.278-1.313,0.624-1.914,1.024c-0.612,0.401-1.18,0.868-1.692,1.38c-0.512,0.512-0.979,1.08-1.38,1.693
			c-0.401,0.601-0.746,1.245-1.024,1.924c-0.278,0.669-0.49,1.369-0.634,2.081s-0.223,1.447-0.223,2.17
			c0,0.722,0.078,1.458,0.223,2.17c0.145,0.712,0.356,1.414,0.634,2.08c0.278,0.679,0.623,1.325,1.024,1.926
			c0.401,0.612,0.868,1.18,1.38,1.692c0.512,0.513,1.08,0.981,1.692,1.38c0.601,0.401,1.247,0.746,1.914,1.024
			c0.679,0.278,1.38,0.501,2.093,0.634c0.712,0.145,1.447,0.223,2.17,0.223s1.458-0.078,2.17-0.223
			c0.712-0.134,1.414-0.356,2.093-0.634c0.668-0.278,1.313-0.623,1.914-1.024c0.612-0.4,1.18-0.867,1.692-1.38
			c0.512-0.512,0.979-1.08,1.38-1.692c0.401-0.601,0.746-1.247,1.024-1.926c0.278-0.668,0.501-1.368,0.646-2.08
			c0.145-0.713,0.211-1.448,0.211-2.17C233.74,453.42,232.549,450.548,230.479,448.478z"/>
	</g>
</g>
</svg>